 <svg width="41" height="41" viewBox="0 0 41 41" fill="none" xmlns="http://www.w3.org/2000/svg">
<rect y="15.8838" width="39.5161" height="25.1163" rx="2" fill="#2F51F0"/>
<path d="M25.929 19.5888C25.2051 18.7302 23.7073 16.9328 23.5078 16.6116L30.4997 5.75695C30.4997 5.75695 28.2711 2.84793 31.1356 2.17396C34 1.49999 37.3766 3.7472 36.2597 5.81802C35.5499 7.13421 32.5992 7.29487 32.5992 7.29487L25.929 19.5888Z" fill="#2F51F0"/>
<path d="M20.4459 18.7893C19.3546 19.1713 17.0755 19.955 16.6894 20.034L7.89676 10.4101C7.89676 10.4101 5.18253 10.0307 4.47614 8.73022C3.2838 6.53508 8.09345 3.38398 9.7438 5.27231C10.7212 6.39065 10.1004 9.00714 10.1004 9.00714L20.4459 18.7893Z" fill="#2F51F0"/>
</svg>
